<svg width="163.529785" height="122.000000" viewBox="0 0 163.53 122" fill="none" xmlns="http://www.w3.org/2000/svg" xmlns:xlink="http://www.w3.org/1999/xlink">
	<desc>
			Created with Pixso.
	</desc>
	<defs>
		<clipPath id="clip12_62">
			<rect id="Layer_1" rx="0.000000" width="162.529785" height="121.000000" transform="translate(0.500000 0.500000)" fill="white" fill-opacity="0"/>
		</clipPath>
	</defs>
	<rect id="Layer_1" rx="0.000000" width="162.529785" height="121.000000" transform="translate(0.500000 0.500000)" fill="#FFFFFF" fill-opacity="0"/>
	<g clip-path="url(#clip12_62)">
		<path id="Vector" d="M160.64 72.15C159.28 72.18 158.55 73.06 157.87 74.04C154.32 79.14 150.76 84.25 147.2 89.35C146.89 89.78 146.76 90.49 145.95 90.36C141.84 89.73 137.73 89.11 133.54 88.47C133.64 88.33 133.74 88.2 133.85 88.07C139.96 82.57 142.53 75.77 141.29 67.6C141.16 66.73 141.57 66.65 142.2 66.5C145.31 65.78 148.4 65.02 151.5 64.28C154.34 63.6 155.03 62.52 154.36 59.71C153.6 56.51 152.82 53.31 152.07 50.11C150.83 44.85 150.5 44.61 145.27 45.93C144.14 46.22 143.71 46.01 143.45 44.86C142.31 39.78 141.05 34.73 139.85 29.65C138.38 23.42 134 19.6 127.78 19.27C118.64 18.8 109.49 18.36 100.34 17.98C99.93 17.99 99.52 17.9 99.16 17.71C98.79 17.52 98.48 17.24 98.26 16.89C95.26 12.76 92.22 8.66 89.15 4.58C86.49 1.03 82.92 -0.73 78.56 0.27C64.02 3.62 49.52 7.14 35.02 10.63C32.96 11.12 32.22 12.5 32.72 14.63C34.87 23.61 37.03 32.6 39.19 41.58C39.78 44.02 39.77 44.02 37.38 44.61C36.76 44.77 36.15 44.93 35.53 45.08C33.13 45.65 33.13 45.65 32.53 43.17C30.74 35.68 28.94 28.19 27.13 20.71C26.63 18.66 25.29 17.65 23.66 18.02C22.04 18.4 21.26 19.85 21.66 21.93C21.97 23.44 22.29 24.96 22.73 26.43C22.84 26.78 22.87 27.15 22.82 27.51C22.77 27.87 22.64 28.21 22.43 28.52C19.23 34.27 15.82 39.92 12.97 45.85C11.06 49.81 8.57 52.17 4.08 52.65C0.94 52.99 0.34 54.4 1.08 57.49C2.53 63.53 3.97 69.57 5.4 75.61C5.67 76.75 6.44 78.16 6.03 78.95C5.55 79.89 3.86 79.68 2.7 80.01C2.45 80.08 2.19 80.16 1.94 80.26C0.44 80.85 -0.31 82.1 0.06 83.67C1.06 88.03 2.09 92.36 3.17 96.69C3.64 98.56 5.02 99.32 6.94 98.87C10.45 98.07 13.97 97.24 17.47 96.34C18.46 96.09 18.85 96.31 19.15 97.29C19.9 99.67 21.09 101.9 22.66 103.85C24.85 106.68 27.65 108.75 30.94 110.42C28.08 111.8 25.25 112.92 22.68 114.48C19.98 116.13 17.51 116.19 14.68 114.88C12.38 113.82 9.88 113.15 7.47 112.35C5.25 111.61 3.47 112.58 3.31 114.6C3.18 116.24 4.15 117.13 5.58 117.63C9.39 118.96 13.22 120.22 16.99 121.64C17.68 121.91 18.42 122.03 19.16 121.98C19.9 121.93 20.61 121.72 21.26 121.36C27.03 118.53 32.81 115.76 38.58 112.93C39.44 112.51 40.38 112.3 41.33 112.31C49.42 112.33 57.52 112.29 65.61 112.33C66.37 112.37 67.14 112.23 67.84 111.93C68.55 111.64 69.18 111.19 69.69 110.62C72.57 107.63 75.56 104.75 78.47 101.78C78.69 101.5 79 101.3 79.34 101.2C79.69 101.11 80.06 101.13 80.39 101.26C85.28 102.69 90.21 103.99 95.1 105.41C95.83 105.65 96.6 105.73 97.36 105.66C98.12 105.59 98.86 105.37 99.53 105.01C107.38 101.14 115.28 97.35 123.14 93.49C123.99 93.05 124.96 92.9 125.9 93.05C132.68 94.08 139.47 95.05 146.24 96.12C148.24 96.44 149.55 95.9 150.69 94.22C154.9 88.04 159.22 81.92 163.5 75.78L163.5 74.18C162.89 73.03 162.12 72.12 160.64 72.15ZM145.83 51.51C146.49 51.35 146.68 51.69 146.8 52.2C147.28 54.26 147.72 56.34 148.27 58.38C148.46 59.12 148.17 59.31 147.57 59.45C145.09 60.02 142.61 60.57 140.15 61.21C139.5 61.38 139.2 61.26 138.91 60.69C137.71 58.36 136.03 56.39 133.87 54.42C138.03 53.42 141.94 52.48 145.84 51.52L145.83 51.51ZM136.34 38.93C136.44 39.5 136.49 39.88 135.7 40.05C133.23 40.58 130.77 41.21 128.13 41.85C128.23 40.57 128.27 39.57 128.39 38.58C128.43 38.01 128.63 37.48 128.98 37.04C129.33 36.59 129.81 36.27 130.35 36.11C130.75 35.98 131.15 35.88 131.55 35.77C135.65 34.77 135.65 34.77 136.34 38.93ZM24.96 35.61C25.83 39.21 26.54 42.35 27.36 45.46C27.69 46.66 27.34 47.09 26.16 47.34C23.32 47.93 20.51 48.65 17.32 49.4L24.96 35.61ZM18.03 89.51C18.03 90.2 17.77 90.56 17.08 90.71C14.39 91.33 11.71 91.97 9.03 92.64C8.34 92.81 8 92.69 7.83 91.9C7.4 89.87 6.89 87.87 6.37 85.86C6.21 85.21 6.4 84.9 7.07 84.74C11.19 83.78 15.3 82.79 19.7 81.75C18.68 84.22 18.12 86.84 18.03 89.51L18.03 89.51ZM13.05 77.59C12.09 77.84 11.68 77.66 11.45 76.6C10.12 70.75 8.74 64.91 7.27 59.1C6.97 57.92 7.17 57.58 8.32 57.31C19.58 54.65 30.84 51.97 42.1 49.26C42.5 49.16 42.92 49.06 43.33 48.96C45.54 48.37 46.3 47.15 45.78 44.95C43.57 35.66 41.37 26.35 39.08 17.08C38.74 15.7 39.15 15.39 40.34 15.11C53.05 12.11 65.76 9.08 78.46 6.03C79.18 5.86 79.92 5.78 80.26 5.72C82.62 5.72 83.89 6.85 84.97 8.32C88.17 12.64 91.38 16.93 94.54 21.29C94.98 21.97 95.59 22.54 96.31 22.93C97.03 23.32 97.83 23.53 98.65 23.53C108.22 23.93 117.79 24.46 127.35 24.93C130.03 25.06 132.16 26.08 133.52 28.5C133.92 29.19 133.87 29.49 133.05 29.65C132 29.85 130.98 30.14 129.95 30.39C125.59 31.45 123.25 33.99 122.74 38.39C122.5 40.56 122.39 42.74 122.32 44.92C122.24 47.43 123.78 48.64 126.21 48.07C129.72 47.25 133.24 46.44 136.74 45.54C137.63 45.31 137.94 45.49 138.13 46.38C138.33 47.27 138.31 47.58 137.35 47.8C134.03 48.54 130.74 49.37 127.44 50.17C126.87 50.3 126.27 50.27 125.71 50.1C116.61 47.77 108.9 50.07 102.71 57.15C99.63 60.66 97.85 65.12 97.65 69.78C97.59 70.98 97.31 71.5 96.05 71.78C84.38 74.52 72.71 77.34 61.05 80.16C60.18 80.37 59.66 80.26 59.15 79.36C51.98 67.01 35.79 64.48 25.19 74.02C24.56 74.59 23.79 74.98 22.96 75.15C19.65 75.93 16.35 76.75 13.05 77.59L13.05 77.59ZM39.87 106.72C35.54 106.64 31.42 104.87 28.39 101.8C25.35 98.72 23.63 94.58 23.6 90.25C23.62 81.33 31.04 73.82 39.76 73.87C49.13 73.94 56.48 81.21 56.45 90.39C56.44 99.31 48.83 106.81 39.88 106.73L39.87 106.72ZM97.23 99.84C96.6 100.15 96.08 99.78 95.55 99.64C90.43 98.25 85.32 96.84 80.23 95.36C78.43 94.82 77.1 95.15 75.79 96.51C72.73 99.72 69.56 102.78 66.44 105.91C65.99 106.36 65.59 106.76 64.84 106.74C61.6 106.7 58.37 106.74 55.08 106.74C55.08 106.17 55.51 105.97 55.77 105.69C60.74 100.39 62.77 94.14 61.72 86.95C61.57 85.9 61.96 85.72 62.8 85.52C74.32 82.79 85.83 80.04 97.34 77.27C97.91 77.13 98.25 77.02 98.57 77.71C102.83 86.84 103.82 87.85 112.77 92.33C107.54 94.85 102.37 97.34 97.25 99.85L97.23 99.84ZM119.55 87.62C110.31 87.59 103.15 80.16 103.17 70.67C103.21 62.24 111.02 54.66 119.54 54.78C128.51 54.92 135.99 62.17 136.01 70.74C136.04 80.25 128.82 87.66 119.58 87.63L119.55 87.62Z" fill="#999999" fill-opacity="1.000000" fill-rule="nonzero"/>
		<path id="Vector" d="M51.29 41.98C52.75 41.68 54.19 41.31 55.64 40.96C68.14 37.98 80.63 34.99 93.12 32C95.75 31.36 96.66 29.32 95.12 27.24C90.95 21.53 86.72 15.87 82.5 10.19C82.22 9.77 81.85 9.43 81.4 9.2C80.96 8.97 80.46 8.86 79.96 8.87C79.58 8.91 79.2 8.97 78.82 9.05C67.72 11.7 56.62 14.37 45.52 17.05C43.57 17.52 42.68 18.79 43.12 20.72C44.59 27.12 46.13 33.52 47.72 39.93C48.19 41.68 49.49 42.35 51.29 41.98ZM62.32 18.76C67.49 17.61 72.63 16.32 77.79 15.09C78.3 14.97 78.84 14.62 79.34 15.32C82.25 19.29 85.2 23.23 88.28 27.37C80.59 29.2 73.17 30.94 65.75 32.76C64.76 33 64.38 32.92 64.15 31.84C63.3 28.02 62.36 24.21 61.42 20.4C61.2 19.53 61.15 19.04 62.32 18.77L62.32 18.76ZM49.88 21.77C51.53 21.37 53.17 20.97 54.82 20.57C55.5 20.39 55.74 20.65 55.89 21.31C56.82 25.34 57.78 29.36 58.77 33.37C58.96 34.14 58.87 34.57 57.97 34.63C57.6 34.7 57.24 34.78 56.89 34.89C55.45 35.13 53.72 36.3 52.69 35.58C51.8 34.95 51.83 32.99 51.49 31.6C50.75 28.57 50.05 25.52 49.36 22.62C49.14 21.95 49.48 21.87 49.88 21.77L49.88 21.77Z" fill="#999999" fill-opacity="1.000000" fill-rule="nonzero"/>
		<path id="Vector" d="M79.87 53.74C81.44 53.34 82.24 52.04 82.04 50.65C81.84 49.26 80.62 48.25 78.8 48.3C78.68 48.32 78.26 48.4 77.85 48.5C66.91 51.11 55.97 53.72 45.03 56.33C35.33 58.65 25.63 60.98 15.93 63.32C13.88 63.82 12.92 65.13 13.31 66.82C13.7 68.51 15.12 69.22 17.18 68.78C17.44 68.72 17.7 68.68 17.98 68.62C35.64 64.4 53.29 60.17 70.94 55.94C73.9 55.23 76.9 54.54 79.87 53.74Z" fill="#999999" fill-opacity="1.000000" fill-rule="nonzero"/>
		<path id="Vector" d="M91.58 56.43C83.11 58.45 74.65 60.47 66.19 62.51C63.29 63.2 60.39 63.85 57.52 64.62C56.83 64.77 56.23 65.17 55.83 65.75C55.44 66.34 55.29 67.05 55.41 67.74C55.62 69.14 56.72 70.07 58.44 70.09C58.71 70.04 59.24 69.94 59.75 69.82C65.79 68.39 71.84 66.95 77.88 65.51C82.78 64.34 87.69 63.17 92.59 61.99C93.86 61.68 95.07 61.25 95.47 59.8C96.11 57.51 94.17 55.82 91.58 56.43Z" fill="#999999" fill-opacity="1.000000" fill-rule="nonzero"/>
		<path id="Vector" d="M86.58 46.41C84.98 46.81 84.11 48.12 84.32 49.61C84.42 50.28 84.77 50.89 85.29 51.32C85.81 51.76 86.47 51.99 87.15 51.97C87.5 51.94 87.85 51.88 88.2 51.81C92.43 50.8 96.66 49.81 100.88 48.74C102.88 48.24 103.85 46.8 103.42 45.19C102.98 43.59 101.48 42.87 99.57 43.29C98.32 43.55 97.09 43.88 95.86 44.18C92.76 44.91 89.66 45.61 86.58 46.41Z" fill="#999999" fill-opacity="1.000000" fill-rule="nonzero"/>
		<path id="Vector" d="M125.84 64.14C124.56 64.81 124.06 66.19 124.58 67.68C124.75 68.18 124.98 68.66 125.17 69.16C126.02 71.47 125.61 73.56 123.94 75.35C123.15 76.19 122.14 76.78 121.03 77.05C119.92 77.33 118.75 77.28 117.67 76.91C116.58 76.54 115.63 75.87 114.92 74.97C114.21 74.08 113.77 72.99 113.66 71.85C113.35 68.77 114.76 66.82 118.29 65.31C119.99 64.58 120.66 63.3 120.15 61.79C119.64 60.27 118.21 59.57 116.43 60.09C111.01 61.69 107.33 67 108 72.28C108.8 78.42 113.47 82.76 119.41 82.85C122.31 82.89 125.12 81.85 127.29 79.93C129.46 78.01 130.84 75.35 131.15 72.47C131.42 69.96 130.86 67.44 129.55 65.29C129.2 64.66 128.62 64.18 127.93 63.97C127.24 63.76 126.49 63.82 125.84 64.14Z" fill="#999999" fill-opacity="1.000000" fill-rule="nonzero"/>
		<path id="Vector" d="M40.2 78.67C33.92 78.5 28.59 83.64 28.42 90.04C28.24 96.43 33.37 101.75 39.86 101.94C46.15 102.11 51.43 96.94 51.67 90.38C51.89 84.22 46.62 78.84 40.2 78.67ZM40.07 96.28C38.88 96.29 37.72 95.95 36.72 95.3C35.72 94.65 34.94 93.71 34.48 92.62C34.02 91.52 33.89 90.31 34.11 89.14C34.34 87.97 34.9 86.9 35.74 86.05C36.58 85.21 37.65 84.63 38.81 84.39C39.98 84.15 41.19 84.27 42.29 84.72C43.39 85.17 44.33 85.94 44.99 86.93C45.66 87.92 46.01 89.08 46.01 90.27C46.02 91.06 45.87 91.84 45.57 92.56C45.28 93.29 44.84 93.95 44.29 94.51C43.74 95.07 43.08 95.51 42.36 95.81C41.63 96.12 40.86 96.27 40.07 96.27L40.07 96.28Z" fill="#999999" fill-opacity="1.000000" fill-rule="nonzero"/>
	</g>
</svg>
