<svg width="159.423828" height="122.000000" viewBox="0 0 159.424 122" fill="none" xmlns="http://www.w3.org/2000/svg" xmlns:xlink="http://www.w3.org/1999/xlink">
	<desc>
			Created with Pixso.
	</desc>
	<defs>
		<clipPath id="clip12_14">
			<rect id="Layer_1" rx="0.000000" width="158.423843" height="121.000000" transform="translate(0.500000 0.500000)" fill="white" fill-opacity="0"/>
		</clipPath>
	</defs>
	<rect id="Layer_1" rx="0.000000" width="158.423843" height="121.000000" transform="translate(0.500000 0.500000)" fill="#FFFFFF" fill-opacity="0"/>
	<g clip-path="url(#clip12_14)">
		<path id="Vector" d="M159.42 98.78C159.44 97.18 159.06 95.59 158.32 94.17C145.83 69.77 133.38 45.35 120.95 20.93C117.8 14.75 114.65 8.58 111.49 2.41C110.23 -0.05 109.05 -0.5 106.44 0.46C105.14 0.95 103.84 1.48 102.54 1.96C95.46 4.56 87.86 5.45 80.37 4.54C74.39 3.81 68.59 2.24 62.85 0.47C59.73 -0.5 58.74 -0.04 57.32 2.92C45.47 27.63 33.49 52.28 21.8 77.06C15.19 91.05 7.93 104.67 0.01 117.93L0.01 119.8C2.15 122.76 4.47 122.71 6.25 119.69C6.54 119.19 6.82 118.7 7.1 118.21L12.2 109.28C12.47 112.25 12.46 115.13 12.47 118.01C12.48 120.9 13.59 121.98 16.43 121.98L155.41 121.98C158.34 121.98 159.42 120.88 159.42 117.91C159.42 111.54 159.37 105.16 159.42 98.78ZM34.87 86.37C34.87 95.65 34.83 104.94 34.9 114.23C34.9 115.57 34.51 115.82 33.28 115.79C28.87 115.71 24.46 115.72 20.05 115.79C19.03 115.79 18.63 115.65 18.64 114.49C18.72 109.24 18.68 104.01 18.67 98.76C18.66 98.14 18.79 97.53 19.06 96.97C31.74 70.59 44.41 44.21 57.07 17.82C57.16 17.65 57.27 17.48 57.6 16.92L57.6 45.06C57.6 55.7 57.56 66.34 57.64 76.97C57.64 78.37 57.18 78.77 55.93 79C49.97 80.09 44.02 81.25 38.08 82.41C35.63 82.88 34.87 83.84 34.87 86.37ZM41.11 106.12C41.11 100.57 41.11 95.02 41.07 89.47C41.07 88.48 41.26 88.05 42.32 87.87C46.22 87.19 50.14 86.4 54.43 85.59L41.36 107.26C40.87 106.94 41.11 106.5 41.11 106.11L41.11 106.12ZM43.54 115.7L60.71 87.24L77.87 115.7L43.54 115.7ZM67.52 86.15C67.52 86.1 67.52 86.06 67.52 86.01L67.52 86.15ZM80.32 107.1C80.03 107.32 79.96 107.07 79.87 106.92C75.83 100.25 71.8 93.57 67.77 86.88C67.65 86.67 67.47 86.49 67.55 86.21C70.28 86.36 72.86 87.3 75.51 87.86C77.11 88.2 79.29 88.02 80.1 89.22C80.86 90.33 80.32 92.32 80.32 93.93C80.33 98.33 80.32 102.73 80.32 107.1L80.32 107.1ZM102.07 115.79C97.31 115.72 92.54 115.72 87.76 115.79C86.68 115.79 86.53 115.43 86.53 114.48C86.56 105.46 86.55 96.43 86.53 87.41C86.53 84.79 85.86 83.9 83.3 83.29C77.21 81.85 71.11 80.43 65.01 79.03C64.23 78.85 63.78 78.68 63.78 77.68C63.82 57.65 63.83 37.64 63.81 17.63C63.84 17.36 63.88 17.1 63.93 16.85C70.09 29.49 76.1 41.81 82.09 54.11C88.99 68.28 95.88 82.45 102.76 96.62C103.14 97.35 103.34 98.17 103.35 98.99C103.32 104.12 103.3 109.26 103.35 114.39C103.39 115.43 103.22 115.81 102.08 115.79L102.07 115.79ZM107.87 92.89C97.25 70.98 86.6 49.09 75.94 27.2C75.8 26.87 75.69 26.53 75.59 26.19L75.67 26.09C77.34 26.09 78.92 26.61 80.55 26.9C82.6 27.27 84.26 26.36 84.66 24.56C85.05 22.77 83.95 21.21 81.86 20.79C78.81 20.19 75.77 19.62 72.77 18.78C72.31 18.65 71.7 18.7 71.49 18.06C71.42 17.87 71.33 17.68 71.23 17.5L66.69 8.2L73.23 9.66C84.18 12.1 94.94 11.48 105.44 7.46C106.51 7.06 107 7.2 107.54 8.28C121.85 36.4 136.16 64.5 150.49 92.58C150.69 92.97 151.06 93.33 150.94 93.96L149.77 93.96C136.43 93.96 123.1 93.96 109.77 93.96C108.83 93.99 108.32 93.8 107.86 92.89L107.87 92.89ZM110.36 115.78C109.75 115.78 109.58 115.57 109.58 115C109.6 112.22 109.58 109.44 109.58 106.25L116.95 115.78C114.56 115.77 112.45 115.75 110.36 115.78L110.36 115.78ZM153.2 114.39C153.2 115.41 153.05 115.8 151.89 115.79C143.24 115.74 134.57 115.75 125.91 115.79C125.58 115.83 125.25 115.77 124.95 115.63C124.65 115.5 124.4 115.28 124.21 115.01C120.5 110.15 116.76 105.32 112.82 100.19L114.46 100.19C126.86 100.19 139.26 100.18 151.65 100.17C152.77 100.17 153.24 100.32 153.21 101.63C153.11 105.89 153.14 110.14 153.18 114.39L153.2 114.39Z" fill="#999999" fill-opacity="1.000000" fill-rule="nonzero"/>
		<path id="Vector" d="M94.04 21.49C93.23 21.53 92.47 21.86 91.9 22.43C91.32 23 90.98 23.76 90.94 24.57C90.94 24.98 91.03 25.39 91.19 25.78C91.35 26.16 91.59 26.5 91.89 26.79C92.18 27.08 92.53 27.31 92.92 27.46C93.3 27.62 93.71 27.7 94.13 27.69C94.94 27.66 95.7 27.32 96.26 26.74C96.82 26.15 97.13 25.38 97.13 24.57C97.1 23.76 96.77 22.99 96.19 22.42C95.62 21.85 94.85 21.52 94.04 21.49Z" fill="#999999" fill-opacity="1.000000" fill-rule="nonzero"/>
	</g>
</svg>
