<svg width="64.600006" height="53.399902" viewBox="0 0 64.6 53.3999" fill="none" xmlns="http://www.w3.org/2000/svg" xmlns:xlink="http://www.w3.org/1999/xlink">
	<desc>
			Created with Pixso.
	</desc>
	<defs/>
	<path id="“" d="M0 18.4C0 6 7.4 -1.53e-5 19.79 -1.53e-5L27 -1.53e-5L27 13.2L20.2 13.2C16.79 13.2 15.2 14 15.2 18.2L15.2 22.4L27.2 22.4L27.2 53.4L0 53.4L0 18.4ZM37.2 18.4C37.2 6 44.6 -1.53e-5 57 -1.53e-5L64.19 -1.53e-5L64.19 13.2L57.6 13.2C54.2 13.2 52.6 14 52.6 18.2L52.6 22.4L64.6 22.4L64.6 53.4L37.2 53.4L37.2 18.4Z" fill="#1E1E1E" fill-opacity="1.000000" fill-rule="evenodd"/>
</svg>
